<svg width="37" height="41" viewBox="0 0 37 41" fill="none" xmlns="http://www.w3.org/2000/svg">
<path d="M35.3333 31.1667C35.3333 31.1667 31.1667 20.75 31.1667 14.5C31.1667 7.69166 25.475 2 18.6667 2C11.8583 2 6.16667 7.69166 6.16667 14.5C6.16667 22.8333 2 31.1667 2 31.1667H35.3333Z" fill="white"/>
<path d="M12.4167 31.1667V33.25C12.4167 34.0708 12.5783 34.8835 12.8924 35.6418C13.2065 36.4001 13.6669 37.0891 14.2472 37.6694C14.8276 38.2498 15.5166 38.7102 16.2749 39.0242C17.0332 39.3383 17.8459 39.5 18.6667 39.5C19.4874 39.5 20.3002 39.3383 21.0584 39.0242C21.8167 38.7102 22.5057 38.2498 23.0861 37.6694C23.6665 37.0891 24.1268 36.4001 24.4409 35.6418C24.755 34.8835 24.9167 34.0708 24.9167 33.25V31.1667M31.1667 14.5C31.1667 20.75 35.3333 31.1667 35.3333 31.1667H2C2 31.1667 6.16667 22.8333 6.16667 14.5C6.16667 7.69166 11.8583 2 18.6667 2C25.475 2 31.1667 7.69166 31.1667 14.5Z" stroke="white" stroke-width="3" stroke-linecap="round" stroke-linejoin="round"/>
</svg>
