<svg width="38" height="38" viewBox="0 0 38 38" fill="none" xmlns="http://www.w3.org/2000/svg">
<path d="M16.9167 0H21.0833C22.2339 0 23.1667 0.93274 23.1667 2.08333V3.26831C23.1667 4.15955 23.7648 4.93385 24.5879 5.27559C25.4114 5.61746 26.3701 5.48717 27.0006 4.85672L27.8387 4.01856C28.6523 3.20497 29.9714 3.20497 30.785 4.01856L33.7313 6.96484C34.5449 7.77843 34.5449 9.09752 33.7313 9.91112L32.8933 10.7492C32.2628 11.3797 32.1325 12.3385 32.4744 13.162C32.8161 13.9851 33.5905 14.5833 34.4818 14.5833L35.6667 14.5833C36.8173 14.5833 37.75 15.5161 37.75 16.6667V20.8333C37.75 21.9839 36.8173 22.9167 35.6667 22.9167H34.4817C33.5905 22.9167 32.8161 23.5148 32.4744 24.338C32.1325 25.1615 32.2628 26.1203 32.8933 26.7507L33.7313 27.5888C34.5449 28.4024 34.5449 29.7215 33.7313 30.5351L30.7851 33.4813C29.9715 34.2949 28.6524 34.2949 27.8388 33.4813L27.0007 32.6433C26.3702 32.0128 25.4114 31.8825 24.588 32.2244C23.7648 32.5661 23.1667 33.3405 23.1667 34.2317V35.4167C23.1667 36.5673 22.2339 37.5 21.0833 37.5H16.9167C15.7661 37.5 14.8333 36.5673 14.8333 35.4167V34.2318C14.8333 33.3405 14.2351 32.5661 13.412 32.2244C12.5885 31.8825 11.6297 32.0128 10.9992 32.6433L10.1611 33.4813C9.34749 34.2949 8.0284 34.2949 7.2148 33.4813L4.26852 30.5351C3.45493 29.7215 3.45493 28.4024 4.26852 27.5888L5.10672 26.7506C5.73717 26.1201 5.86746 25.1614 5.52559 24.3379C5.18385 23.5148 4.40955 22.9167 3.51831 22.9167H2.33333C1.18274 22.9167 0.25 21.9839 0.25 20.8333V16.6667C0.25 15.5161 1.18274 14.5833 2.33333 14.5833L3.51826 14.5833C4.40954 14.5833 5.18385 13.9852 5.52561 13.162C5.86749 12.3385 5.7372 11.3798 5.10673 10.7493L4.26856 9.91112C3.45497 9.09753 3.45497 7.77844 4.26856 6.96484L7.21484 4.01857C8.02843 3.20497 9.34752 3.20497 10.1611 4.01857L10.9993 4.85673C11.6298 5.4872 12.5885 5.6175 13.412 5.27561C14.2352 4.93385 14.8333 4.15954 14.8333 3.26826V2.08333C14.8333 0.93274 15.7661 0 16.9167 0Z" fill="white"/>
<path d="M23.1667 18.75C23.1667 21.0512 21.3012 22.9167 19 22.9167C16.6988 22.9167 14.8333 21.0512 14.8333 18.75C14.8333 16.4488 16.6988 14.5833 19 14.5833C21.3012 14.5833 23.1667 16.4488 23.1667 18.75Z" fill="white"/>
<path d="M16.9167 0H21.0833C22.2339 0 23.1667 0.93274 23.1667 2.08333V3.26831C23.1667 4.15955 23.7648 4.93385 24.5879 5.27559C25.4114 5.61746 26.3701 5.48717 27.0006 4.85672L27.8387 4.01856C28.6523 3.20497 29.9714 3.20497 30.785 4.01856L33.7313 6.96484C34.5449 7.77843 34.5449 9.09752 33.7313 9.91112L32.8933 10.7492C32.2628 11.3797 32.1325 12.3385 32.4744 13.162C32.8161 13.9851 33.5905 14.5833 34.4818 14.5833L35.6667 14.5833C36.8173 14.5833 37.75 15.5161 37.75 16.6667V20.8333C37.75 21.9839 36.8173 22.9167 35.6667 22.9167H34.4817C33.5905 22.9167 32.8161 23.5148 32.4744 24.338C32.1325 25.1615 32.2628 26.1203 32.8933 26.7507L33.7313 27.5888C34.5449 28.4024 34.5449 29.7215 33.7313 30.5351L30.7851 33.4813C29.9715 34.2949 28.6524 34.2949 27.8388 33.4813L27.0007 32.6433C26.3702 32.0128 25.4114 31.8825 24.588 32.2244C23.7648 32.5661 23.1667 33.3405 23.1667 34.2317V35.4167C23.1667 36.5673 22.2339 37.5 21.0833 37.5H16.9167C15.7661 37.5 14.8333 36.5673 14.8333 35.4167V34.2318C14.8333 33.3405 14.2351 32.5661 13.412 32.2244C12.5885 31.8825 11.6297 32.0128 10.9992 32.6433L10.1611 33.4813C9.34749 34.2949 8.0284 34.2949 7.2148 33.4813L4.26852 30.5351C3.45493 29.7215 3.45493 28.4024 4.26852 27.5888L5.10672 26.7506C5.73717 26.1201 5.86746 25.1614 5.52559 24.3379C5.18385 23.5148 4.40955 22.9167 3.51831 22.9167H2.33333C1.18274 22.9167 0.25 21.9839 0.25 20.8333V16.6667C0.25 15.5161 1.18274 14.5833 2.33333 14.5833L3.51826 14.5833C4.40954 14.5833 5.18385 13.9852 5.52561 13.162C5.86749 12.3385 5.7372 11.3798 5.10673 10.7493L4.26856 9.91112C3.45497 9.09753 3.45497 7.77844 4.26856 6.96484L7.21484 4.01857C8.02843 3.20497 9.34752 3.20497 10.1611 4.01857L10.9993 4.85673C11.6298 5.4872 12.5885 5.6175 13.412 5.27561C14.2352 4.93385 14.8333 4.15954 14.8333 3.26826V2.08333C14.8333 0.93274 15.7661 0 16.9167 0Z" stroke="#083949"/>
<path d="M23.1667 18.75C23.1667 21.0512 21.3012 22.9167 19 22.9167C16.6988 22.9167 14.8333 21.0512 14.8333 18.75C14.8333 16.4488 16.6988 14.5833 19 14.5833C21.3012 14.5833 23.1667 16.4488 23.1667 18.75Z" stroke="#083949"/>
</svg>
