<svg width="37" height="41" viewBox="0 0 37 41" fill="none" xmlns="http://www.w3.org/2000/svg">
<path d="M26.6667 27H10.0001C5.39771 27 1.66675 30.731 1.66675 35.3333V39.5H35.0001V35.3333C35.0001 30.731 31.2691 27 26.6667 27Z" fill="white"/>
<path d="M18.3334 18.6667C22.9358 18.6667 26.6667 14.9357 26.6667 10.3333C26.6667 5.73096 22.9358 2 18.3334 2C13.731 2 10.0001 5.73096 10.0001 10.3333C10.0001 14.9357 13.731 18.6667 18.3334 18.6667Z" fill="white"/>
<path d="M26.6667 27H10.0001C5.39771 27 1.66675 30.731 1.66675 35.3333V39.5H35.0001V35.3333C35.0001 30.731 31.2691 27 26.6667 27Z" stroke="white" stroke-width="3" stroke-linecap="round" stroke-linejoin="round"/>
<path d="M18.3334 18.6667C22.9358 18.6667 26.6667 14.9357 26.6667 10.3333C26.6667 5.73096 22.9358 2 18.3334 2C13.731 2 10.0001 5.73096 10.0001 10.3333C10.0001 14.9357 13.731 18.6667 18.3334 18.6667Z" stroke="white" stroke-width="3" stroke-linecap="round" stroke-linejoin="round"/>
</svg>
