<svg xmlns="http://www.w3.org/2000/svg" xmlns:xlink="http://www.w3.org/1999/xlink" width="371" zoomAndPan="magnify" viewBox="0 0 278.25 323.999988" height="432" preserveAspectRatio="xMidYMid meet" version="1.0"><defs><clipPath id="6a6505dbe1"><path d="M 0 24 L 277.503906 24 L 277.503906 300 L 0 300 Z M 0 24 " clip-rule="nonzero"/></clipPath><clipPath id="04c96c9b9b"><path d="M 0 0.433594 L 277.503906 0.433594 L 277.503906 49 L 0 49 Z M 0 0.433594 " clip-rule="nonzero"/></clipPath><clipPath id="553acb23e9"><path d="M 0 275 L 277.503906 275 L 277.503906 323.5625 L 0 323.5625 Z M 0 275 " clip-rule="nonzero"/></clipPath><clipPath id="ccd721516c"><path d="M 86.640625 81.21875 L 190.609375 81.21875 L 190.609375 242.78125 L 86.640625 242.78125 Z M 86.640625 81.21875 " clip-rule="nonzero"/></clipPath><clipPath id="73b3f308d2"><path d="M 128 81.21875 L 190.609375 81.21875 L 190.609375 242.78125 L 128 242.78125 Z M 128 81.21875 " clip-rule="nonzero"/></clipPath><clipPath id="f037f12c56"><path d="M 90 81.21875 L 190.609375 81.21875 L 190.609375 242.78125 L 90 242.78125 Z M 90 81.21875 " clip-rule="nonzero"/></clipPath></defs><g clip-path="url(#6a6505dbe1)"><path fill="#000000" d="M 0 24.46875 L 277.414062 24.46875 L 277.414062 299.53125 L 0 299.53125 Z M 0 24.46875 " fill-opacity="1" fill-rule="nonzero"/></g><g clip-path="url(#04c96c9b9b)"><path fill="#323232" d="M 277.414062 24.46875 C 277.414062 37.667969 215.3125 48.367188 138.707031 48.367188 C 62.101562 48.367188 0 37.667969 0 24.46875 C 0 11.265625 62.101562 0.566406 138.707031 0.566406 C 215.3125 0.566406 277.414062 11.265625 277.414062 24.46875 Z M 277.414062 24.46875 " fill-opacity="1" fill-rule="nonzero"/></g><g clip-path="url(#553acb23e9)"><path fill="#000000" d="M 277.414062 299.53125 C 277.414062 312.730469 215.3125 323.433594 138.707031 323.433594 C 62.101562 323.433594 0 312.730469 0 299.53125 C 0 286.332031 62.101562 275.628906 138.707031 275.628906 C 215.3125 275.628906 277.414062 286.332031 277.414062 299.53125 Z M 277.414062 299.53125 " fill-opacity="1" fill-rule="nonzero"/></g><g clip-path="url(#ccd721516c)"><path fill="#ffffff" d="M 190.777344 184.582031 C 190.777344 216.722656 167.480469 242.777344 138.738281 242.777344 C 109.996094 242.777344 86.695312 216.722656 86.695312 184.578125 C 86.695312 163.699219 98.046875 144.371094 108.765625 128.230469 C 118.15625 114.085938 129.953125 95.882812 138.738281 81.214844 C 145.941406 97.90625 159.554688 114.710938 169.285156 129.300781 C 179.792969 145.054688 190.777344 164.207031 190.777344 184.582031 " fill-opacity="1" fill-rule="nonzero"/></g><g clip-path="url(#73b3f308d2)"><path fill="#323232" d="M 138.738281 242.777344 C 138.726562 242.777344 138.710938 242.777344 138.699219 242.777344 C 138.710938 242.777344 138.722656 242.777344 138.738281 242.777344 C 167.480469 242.777344 190.777344 216.722656 190.777344 184.582031 C 190.777344 216.722656 167.480469 242.777344 138.738281 242.777344 M 138.6875 242.777344 C 138.679688 242.777344 138.667969 242.777344 138.660156 242.777344 C 138.671875 242.777344 138.675781 242.777344 138.6875 242.777344 M 138.648438 242.777344 C 138.621094 242.777344 138.597656 242.777344 138.574219 242.777344 C 138.597656 242.777344 138.625 242.777344 138.648438 242.777344 M 138.558594 242.777344 C 138.550781 242.777344 138.542969 242.777344 138.535156 242.777344 C 138.542969 242.777344 138.550781 242.777344 138.558594 242.777344 M 138.523438 242.777344 C 138.507812 242.777344 138.5 242.777344 138.484375 242.777344 C 138.496094 242.777344 138.511719 242.777344 138.523438 242.777344 M 138.484375 242.777344 C 138.472656 242.777344 138.457031 242.777344 138.445312 242.777344 C 138.457031 242.777344 138.472656 242.777344 138.484375 242.777344 M 138.433594 242.777344 C 138.425781 242.777344 138.417969 242.777344 138.40625 242.777344 C 138.417969 242.777344 138.425781 242.777344 138.433594 242.777344 M 138.394531 242.777344 C 138.382812 242.777344 138.375 242.777344 138.363281 242.777344 C 138.371094 242.777344 138.382812 242.777344 138.394531 242.777344 M 138.359375 242.777344 C 138.347656 242.777344 138.332031 242.773438 138.320312 242.773438 C 138.332031 242.773438 138.34375 242.777344 138.359375 242.777344 M 138.308594 242.773438 C 138.300781 242.773438 138.289062 242.773438 138.28125 242.773438 C 138.289062 242.773438 138.300781 242.773438 138.308594 242.773438 M 138.269531 242.773438 C 138.257812 242.773438 138.246094 242.773438 138.234375 242.773438 C 138.246094 242.773438 138.257812 242.773438 138.269531 242.773438 M 138.230469 242.773438 C 138.21875 242.773438 138.207031 242.773438 138.195312 242.773438 C 138.207031 242.773438 138.21875 242.773438 138.230469 242.773438 M 138.183594 242.773438 C 138.171875 242.773438 138.164062 242.773438 138.15625 242.773438 C 138.164062 242.773438 138.171875 242.773438 138.183594 242.773438 M 138.144531 242.773438 C 138.132812 242.773438 138.121094 242.773438 138.109375 242.773438 C 138.121094 242.773438 138.132812 242.773438 138.144531 242.773438 M 138.105469 242.773438 C 138.09375 242.773438 138.078125 242.773438 138.066406 242.773438 C 138.082031 242.773438 138.09375 242.773438 138.105469 242.773438 M 138.054688 242.773438 C 138.046875 242.773438 138.039062 242.773438 138.027344 242.773438 C 138.039062 242.773438 138.046875 242.773438 138.054688 242.773438 M 138.015625 242.773438 C 138.003906 242.773438 137.996094 242.773438 137.984375 242.769531 C 137.996094 242.773438 138.003906 242.773438 138.015625 242.773438 M 137.980469 242.769531 C 137.964844 242.769531 137.953125 242.769531 137.941406 242.769531 C 137.953125 242.769531 137.964844 242.769531 137.980469 242.769531 M 137.929688 242.769531 C 137.921875 242.769531 137.914062 242.769531 137.902344 242.769531 C 137.914062 242.769531 137.921875 242.769531 137.929688 242.769531 M 137.890625 242.769531 C 137.882812 242.769531 137.871094 242.769531 137.859375 242.769531 C 137.871094 242.769531 137.878906 242.769531 137.890625 242.769531 M 137.851562 242.769531 C 137.839844 242.769531 137.828125 242.769531 137.816406 242.769531 C 137.828125 242.769531 137.839844 242.769531 137.851562 242.769531 M 137.804688 242.765625 C 137.796875 242.765625 137.785156 242.765625 137.777344 242.765625 C 137.785156 242.765625 137.796875 242.765625 137.804688 242.765625 M 137.765625 242.765625 C 137.753906 242.765625 137.746094 242.765625 137.734375 242.765625 C 137.746094 242.765625 137.753906 242.765625 137.765625 242.765625 M 137.726562 242.765625 C 137.714844 242.765625 137.703125 242.765625 137.691406 242.765625 C 137.703125 242.765625 137.714844 242.765625 137.726562 242.765625 M 137.679688 242.765625 C 137.671875 242.765625 137.660156 242.765625 137.652344 242.765625 C 137.660156 242.765625 137.667969 242.765625 137.679688 242.765625 M 137.636719 242.765625 C 137.628906 242.765625 137.621094 242.765625 137.609375 242.761719 C 137.621094 242.765625 137.628906 242.765625 137.636719 242.765625 M 137.601562 242.761719 C 137.585938 242.761719 137.578125 242.761719 137.5625 242.761719 C 137.578125 242.761719 137.589844 242.761719 137.601562 242.761719 M 137.550781 242.761719 C 137.542969 242.761719 137.535156 242.761719 137.527344 242.761719 C 137.535156 242.761719 137.542969 242.761719 137.550781 242.761719 M 137.511719 242.761719 C 137.503906 242.761719 137.492188 242.761719 137.484375 242.761719 C 137.496094 242.761719 137.503906 242.761719 137.511719 242.761719 M 137.472656 242.761719 C 137.460938 242.761719 137.449219 242.761719 137.4375 242.757812 C 137.449219 242.761719 137.464844 242.761719 137.472656 242.761719 M 137.425781 242.757812 C 137.417969 242.757812 137.410156 242.757812 137.402344 242.757812 C 137.410156 242.757812 137.417969 242.757812 137.425781 242.757812 M 137.382812 242.757812 C 137.378906 242.757812 137.371094 242.757812 137.363281 242.757812 C 137.371094 242.757812 137.378906 242.757812 137.382812 242.757812 M 137.347656 242.757812 C 137.335938 242.757812 137.324219 242.753906 137.3125 242.753906 C 137.324219 242.753906 137.335938 242.757812 137.347656 242.757812 M 137.300781 242.753906 C 137.292969 242.753906 137.285156 242.753906 137.277344 242.753906 C 137.285156 242.753906 137.289062 242.753906 137.300781 242.753906 M 137.261719 242.753906 C 137.253906 242.753906 137.246094 242.753906 137.238281 242.753906 C 137.242188 242.753906 137.253906 242.753906 137.261719 242.753906 M 137.222656 242.753906 C 137.210938 242.753906 137.199219 242.753906 137.1875 242.75 C 137.199219 242.753906 137.210938 242.753906 137.222656 242.753906 M 137.171875 242.75 C 137.164062 242.75 137.160156 242.75 137.152344 242.75 C 137.15625 242.75 137.164062 242.75 137.171875 242.75 M 137.132812 242.75 C 137.125 242.75 137.121094 242.75 137.113281 242.75 C 137.121094 242.75 137.125 242.75 137.132812 242.75 M 137.097656 242.75 C 137.085938 242.75 137.078125 242.75 137.070312 242.746094 C 137.078125 242.75 137.085938 242.75 137.097656 242.75 M 137.042969 242.746094 C 137.039062 242.746094 137.03125 242.746094 137.027344 242.746094 C 137.03125 242.746094 137.039062 242.746094 137.042969 242.746094 M 137.007812 242.746094 C 137 242.746094 136.996094 242.746094 136.988281 242.746094 C 136.996094 242.746094 137 242.746094 137.007812 242.746094 M 136.96875 242.742188 C 136.957031 242.742188 136.949219 242.742188 136.9375 242.742188 C 136.949219 242.742188 136.960938 242.742188 136.96875 242.742188 M 136.921875 242.742188 C 136.914062 242.742188 136.90625 242.742188 136.898438 242.742188 C 136.90625 242.742188 136.914062 242.742188 136.921875 242.742188 M 136.882812 242.742188 C 136.875 242.742188 136.867188 242.738281 136.863281 242.738281 C 136.867188 242.738281 136.875 242.742188 136.882812 242.742188 M 136.84375 242.738281 C 136.835938 242.738281 136.828125 242.738281 136.820312 242.738281 C 136.828125 242.738281 136.835938 242.738281 136.84375 242.738281 M 136.796875 242.738281 C 136.789062 242.738281 136.78125 242.738281 136.773438 242.738281 C 136.78125 242.738281 136.789062 242.738281 136.796875 242.738281 M 136.753906 242.734375 C 136.75 242.734375 136.746094 242.734375 136.738281 242.734375 C 136.746094 242.734375 136.75 242.734375 136.753906 242.734375 M 136.71875 242.734375 C 136.710938 242.734375 136.703125 242.734375 136.695312 242.734375 C 136.703125 242.734375 136.710938 242.734375 136.71875 242.734375 M 136.667969 242.730469 C 136.664062 242.730469 136.65625 242.730469 136.648438 242.730469 C 136.65625 242.730469 136.664062 242.730469 136.667969 242.730469 M 136.628906 242.730469 C 136.625 242.730469 136.617188 242.730469 136.613281 242.730469 C 136.621094 242.730469 136.625 242.730469 136.628906 242.730469 M 136.59375 242.726562 C 136.585938 242.726562 136.582031 242.726562 136.574219 242.726562 C 136.582031 242.726562 136.585938 242.726562 136.59375 242.726562 M 136.539062 242.726562 C 136.535156 242.726562 136.53125 242.726562 136.523438 242.726562 C 136.53125 242.726562 136.535156 242.726562 136.539062 242.726562 M 136.503906 242.722656 C 136.5 242.722656 136.492188 242.722656 136.488281 242.722656 C 136.492188 242.722656 136.5 242.722656 136.503906 242.722656 M 136.46875 242.722656 C 136.460938 242.722656 136.457031 242.722656 136.453125 242.722656 C 136.457031 242.722656 136.460938 242.722656 136.46875 242.722656 M 136.414062 242.71875 C 136.40625 242.71875 136.40625 242.71875 136.402344 242.71875 C 136.402344 242.71875 136.410156 242.71875 136.414062 242.71875 M 136.375 242.71875 C 136.375 242.71875 136.367188 242.71875 136.363281 242.71875 C 136.367188 242.71875 136.375 242.71875 136.375 242.71875 M 136.34375 242.714844 C 136.335938 242.714844 136.335938 242.714844 136.328125 242.714844 C 136.332031 242.714844 136.339844 242.714844 136.34375 242.714844 M 136.285156 242.714844 C 136.28125 242.714844 136.277344 242.714844 136.273438 242.714844 C 136.277344 242.714844 136.285156 242.714844 136.285156 242.714844 M 136.25 242.710938 C 136.246094 242.710938 136.246094 242.710938 136.238281 242.710938 C 136.242188 242.710938 136.25 242.710938 136.25 242.710938 M 136.21875 242.710938 C 136.210938 242.710938 136.210938 242.710938 136.203125 242.710938 C 136.207031 242.710938 136.214844 242.710938 136.21875 242.710938 M 136.15625 242.707031 C 136.15625 242.707031 136.152344 242.707031 136.152344 242.707031 C 136.152344 242.707031 136.15625 242.707031 136.15625 242.707031 M 136.125 242.703125 C 136.121094 242.703125 136.117188 242.703125 136.117188 242.703125 C 136.117188 242.703125 136.121094 242.703125 136.125 242.703125 M 136.089844 242.703125 C 136.089844 242.703125 136.085938 242.703125 136.082031 242.703125 C 136.085938 242.703125 136.089844 242.703125 136.089844 242.703125 M 136.027344 242.699219 L 136.027344 242.699219 M 136 242.699219 C 135.996094 242.699219 135.996094 242.699219 135.992188 242.699219 C 135.996094 242.699219 135.996094 242.699219 136 242.699219 M 135.964844 242.695312 C 135.964844 242.695312 135.960938 242.695312 135.960938 242.695312 C 135.960938 242.695312 135.964844 242.695312 135.964844 242.695312 M 135.875 242.691406 C 135.871094 242.691406 135.871094 242.691406 135.867188 242.691406 C 135.867188 242.691406 135.871094 242.691406 135.875 242.691406 M 135.839844 242.6875 C 135.839844 242.6875 135.835938 242.6875 135.835938 242.6875 C 135.835938 242.6875 135.839844 242.6875 135.839844 242.6875 M 135.75 242.683594 C 135.746094 242.683594 135.746094 242.683594 135.742188 242.683594 C 135.742188 242.683594 135.746094 242.683594 135.75 242.683594 M 135.714844 242.679688 C 135.714844 242.679688 135.710938 242.679688 135.710938 242.679688 C 135.710938 242.679688 135.714844 242.679688 135.714844 242.679688 M 135.621094 242.675781 C 135.621094 242.675781 135.621094 242.675781 135.617188 242.675781 C 135.621094 242.675781 135.621094 242.675781 135.621094 242.675781 M 135.589844 242.671875 C 135.589844 242.671875 135.585938 242.671875 135.585938 242.671875 C 135.589844 242.671875 135.585938 242.671875 135.589844 242.671875 M 135.496094 242.664062 L 135.496094 242.664062 M 135.464844 242.664062 L 135.464844 242.664062 M 128.40625 97.960938 C 131.152344 93.609375 133.820312 89.320312 136.308594 85.238281 C 133.820312 89.320312 131.152344 93.609375 128.40625 97.960938 M 136.320312 85.214844 C 136.332031 85.199219 136.339844 85.183594 136.347656 85.167969 C 136.339844 85.183594 136.332031 85.199219 136.320312 85.214844 M 136.351562 85.164062 C 136.363281 85.144531 136.375 85.125 136.386719 85.105469 C 136.375 85.125 136.363281 85.144531 136.351562 85.164062 M 136.394531 85.09375 C 136.40625 85.074219 136.417969 85.054688 136.429688 85.039062 C 136.417969 85.054688 136.40625 85.074219 136.394531 85.09375 M 136.429688 85.035156 C 136.441406 85.015625 136.453125 84.996094 136.46875 84.972656 C 136.453125 84.996094 136.441406 85.015625 136.429688 85.035156 M 136.46875 84.96875 C 136.625 84.714844 136.777344 84.464844 136.929688 84.210938 C 136.777344 84.464844 136.625 84.714844 136.46875 84.96875 M 136.933594 84.207031 C 137.03125 84.042969 137.132812 83.878906 137.230469 83.714844 C 137.132812 83.878906 137.035156 84.042969 136.933594 84.207031 M 137.238281 83.699219 C 137.289062 83.617188 137.335938 83.539062 137.386719 83.457031 C 137.335938 83.539062 137.289062 83.617188 137.238281 83.699219 M 137.390625 83.449219 C 137.414062 83.410156 137.4375 83.371094 137.460938 83.332031 C 137.4375 83.371094 137.414062 83.410156 137.390625 83.449219 M 137.46875 83.320312 C 137.480469 83.304688 137.488281 83.289062 137.5 83.269531 C 137.488281 83.289062 137.480469 83.304688 137.46875 83.320312 M 137.503906 83.257812 C 137.515625 83.242188 137.527344 83.226562 137.539062 83.207031 C 137.527344 83.226562 137.515625 83.242188 137.503906 83.257812 M 137.550781 83.1875 C 137.558594 83.175781 137.566406 83.160156 137.574219 83.148438 C 137.566406 83.160156 137.558594 83.175781 137.550781 83.1875 M 137.582031 83.136719 C 137.59375 83.117188 137.605469 83.097656 137.613281 83.078125 C 137.605469 83.097656 137.59375 83.117188 137.582031 83.136719 M 137.621094 83.066406 C 137.632812 83.050781 137.640625 83.035156 137.652344 83.019531 C 137.640625 83.035156 137.632812 83.050781 137.621094 83.066406 M 137.65625 83.007812 C 137.679688 82.96875 137.703125 82.929688 137.726562 82.894531 C 137.703125 82.933594 137.683594 82.96875 137.65625 83.007812 M 137.734375 82.882812 C 137.746094 82.867188 137.753906 82.847656 137.765625 82.828125 C 137.753906 82.847656 137.746094 82.863281 137.734375 82.882812 M 137.769531 82.824219 C 137.792969 82.785156 137.816406 82.746094 137.839844 82.707031 C 137.816406 82.746094 137.792969 82.785156 137.769531 82.824219 M 137.84375 82.699219 C 137.871094 82.65625 137.894531 82.617188 137.917969 82.578125 C 137.894531 82.617188 137.871094 82.660156 137.84375 82.699219 M 137.917969 82.578125 C 137.941406 82.535156 137.964844 82.496094 137.992188 82.457031 C 137.96875 82.496094 137.941406 82.535156 137.917969 82.578125 M 137.996094 82.445312 C 138.007812 82.429688 138.019531 82.410156 138.03125 82.390625 C 138.019531 82.410156 138.007812 82.425781 137.996094 82.445312 M 138.03125 82.386719 C 138.042969 82.371094 138.054688 82.347656 138.066406 82.332031 C 138.054688 82.347656 138.042969 82.371094 138.03125 82.386719 M 138.070312 82.320312 C 138.082031 82.304688 138.09375 82.285156 138.105469 82.265625 C 138.09375 82.285156 138.082031 82.304688 138.070312 82.320312 M 138.105469 82.261719 C 138.117188 82.246094 138.128906 82.226562 138.140625 82.207031 C 138.128906 82.226562 138.117188 82.246094 138.105469 82.261719 M 138.152344 82.191406 C 138.160156 82.175781 138.167969 82.164062 138.175781 82.148438 C 138.167969 82.164062 138.160156 82.175781 138.152344 82.191406 M 138.183594 82.132812 C 138.207031 82.097656 138.230469 82.058594 138.253906 82.023438 C 138.230469 82.058594 138.207031 82.097656 138.183594 82.132812 M 138.257812 82.011719 C 138.269531 81.996094 138.277344 81.980469 138.289062 81.964844 C 138.277344 81.980469 138.269531 81.996094 138.257812 82.011719 M 138.292969 81.953125 C 138.316406 81.914062 138.339844 81.875 138.363281 81.839844 C 138.339844 81.875 138.316406 81.914062 138.292969 81.953125 M 138.371094 81.824219 C 138.378906 81.808594 138.390625 81.792969 138.398438 81.777344 C 138.390625 81.792969 138.378906 81.808594 138.371094 81.824219 M 138.414062 81.753906 C 138.417969 81.742188 138.425781 81.730469 138.433594 81.71875 C 138.425781 81.730469 138.417969 81.742188 138.414062 81.753906 M 138.449219 81.695312 C 138.457031 81.683594 138.464844 81.667969 138.472656 81.65625 C 138.464844 81.667969 138.457031 81.683594 138.449219 81.695312 M 138.480469 81.640625 C 138.492188 81.625 138.5 81.609375 138.511719 81.589844 C 138.5 81.609375 138.492188 81.625 138.480469 81.640625 M 138.519531 81.578125 C 138.53125 81.558594 138.539062 81.542969 138.550781 81.527344 C 138.539062 81.542969 138.53125 81.558594 138.519531 81.578125 M 138.554688 81.519531 C 138.5625 81.503906 138.574219 81.484375 138.585938 81.464844 C 138.574219 81.484375 138.5625 81.503906 138.554688 81.519531 M 138.59375 81.453125 C 138.605469 81.433594 138.613281 81.417969 138.621094 81.402344 C 138.613281 81.417969 138.605469 81.4375 138.59375 81.453125 M 138.628906 81.398438 C 138.636719 81.378906 138.648438 81.359375 138.660156 81.339844 C 138.648438 81.359375 138.636719 81.378906 138.628906 81.398438 M 138.667969 81.328125 C 138.679688 81.3125 138.6875 81.300781 138.695312 81.285156 C 138.6875 81.300781 138.679688 81.3125 138.667969 81.328125 M 138.703125 81.265625 C 138.714844 81.25 138.726562 81.230469 138.738281 81.214844 C 138.726562 81.230469 138.714844 81.25 138.703125 81.265625 " fill-opacity="1" fill-rule="nonzero"/></g><g clip-path="url(#f037f12c56)"><path fill="#ffffff" d="M 138.738281 242.777344 C 138.722656 242.777344 138.710938 242.777344 138.699219 242.777344 C 138.695312 242.777344 138.691406 242.777344 138.6875 242.777344 C 138.675781 242.777344 138.671875 242.777344 138.660156 242.777344 C 138.65625 242.777344 138.652344 242.777344 138.648438 242.777344 C 138.625 242.777344 138.597656 242.777344 138.574219 242.777344 C 138.570312 242.777344 138.5625 242.777344 138.558594 242.777344 C 138.550781 242.777344 138.542969 242.777344 138.535156 242.777344 C 138.53125 242.777344 138.527344 242.777344 138.523438 242.777344 C 138.511719 242.777344 138.496094 242.777344 138.484375 242.777344 C 138.472656 242.777344 138.457031 242.777344 138.445312 242.777344 C 138.441406 242.777344 138.4375 242.777344 138.433594 242.777344 C 138.425781 242.777344 138.417969 242.777344 138.40625 242.777344 C 138.402344 242.777344 138.398438 242.777344 138.394531 242.777344 C 138.382812 242.777344 138.371094 242.777344 138.363281 242.777344 C 138.359375 242.777344 138.359375 242.777344 138.359375 242.777344 C 138.34375 242.777344 138.332031 242.773438 138.320312 242.773438 C 138.316406 242.773438 138.3125 242.773438 138.308594 242.773438 C 138.300781 242.773438 138.289062 242.773438 138.28125 242.773438 C 138.277344 242.773438 138.273438 242.773438 138.269531 242.773438 C 138.257812 242.773438 138.246094 242.773438 138.234375 242.773438 C 138.234375 242.773438 138.234375 242.773438 138.230469 242.773438 C 138.21875 242.773438 138.207031 242.773438 138.195312 242.773438 C 138.191406 242.773438 138.1875 242.773438 138.183594 242.773438 C 138.171875 242.773438 138.164062 242.773438 138.15625 242.773438 C 138.152344 242.773438 138.144531 242.773438 138.144531 242.773438 C 138.132812 242.773438 138.121094 242.773438 138.109375 242.773438 C 138.109375 242.773438 138.105469 242.773438 138.105469 242.773438 C 138.09375 242.773438 138.082031 242.773438 138.066406 242.773438 C 138.0625 242.773438 138.058594 242.773438 138.054688 242.773438 C 138.046875 242.773438 138.039062 242.773438 138.027344 242.773438 C 138.023438 242.773438 138.019531 242.773438 138.015625 242.773438 C 138.003906 242.773438 137.996094 242.773438 137.984375 242.769531 C 137.984375 242.769531 137.980469 242.769531 137.980469 242.769531 C 137.964844 242.769531 137.953125 242.769531 137.941406 242.769531 C 137.9375 242.769531 137.933594 242.769531 137.929688 242.769531 C 137.921875 242.769531 137.914062 242.769531 137.902344 242.769531 C 137.898438 242.769531 137.894531 242.769531 137.890625 242.769531 C 137.878906 242.769531 137.871094 242.769531 137.859375 242.769531 C 137.859375 242.769531 137.855469 242.769531 137.851562 242.769531 C 137.839844 242.769531 137.828125 242.769531 137.816406 242.769531 C 137.8125 242.769531 137.808594 242.769531 137.804688 242.765625 C 137.796875 242.765625 137.785156 242.765625 137.777344 242.765625 C 137.773438 242.765625 137.769531 242.765625 137.765625 242.765625 C 137.753906 242.765625 137.746094 242.765625 137.734375 242.765625 C 137.734375 242.765625 137.730469 242.765625 137.726562 242.765625 C 137.714844 242.765625 137.703125 242.765625 137.691406 242.765625 C 137.6875 242.765625 137.683594 242.765625 137.679688 242.765625 C 137.667969 242.765625 137.660156 242.765625 137.652344 242.765625 C 137.644531 242.765625 137.644531 242.765625 137.636719 242.765625 C 137.628906 242.765625 137.621094 242.765625 137.609375 242.761719 C 137.609375 242.761719 137.601562 242.761719 137.601562 242.761719 C 137.589844 242.761719 137.578125 242.761719 137.5625 242.761719 C 137.558594 242.761719 137.554688 242.761719 137.550781 242.761719 C 137.542969 242.761719 137.535156 242.761719 137.527344 242.761719 C 137.519531 242.761719 137.515625 242.761719 137.511719 242.761719 C 137.503906 242.761719 137.496094 242.761719 137.484375 242.761719 C 137.480469 242.761719 137.476562 242.761719 137.472656 242.761719 C 137.464844 242.761719 137.449219 242.761719 137.4375 242.757812 C 137.433594 242.757812 137.429688 242.757812 137.425781 242.757812 C 137.417969 242.757812 137.410156 242.757812 137.402344 242.757812 C 137.394531 242.757812 137.390625 242.757812 137.382812 242.757812 C 137.378906 242.757812 137.371094 242.757812 137.363281 242.757812 C 137.359375 242.757812 137.351562 242.757812 137.347656 242.757812 C 137.335938 242.757812 137.324219 242.753906 137.3125 242.753906 C 137.308594 242.753906 137.304688 242.753906 137.300781 242.753906 C 137.289062 242.753906 137.285156 242.753906 137.277344 242.753906 C 137.269531 242.753906 137.265625 242.753906 137.261719 242.753906 C 137.253906 242.753906 137.242188 242.753906 137.238281 242.753906 C 137.234375 242.753906 137.226562 242.753906 137.222656 242.753906 C 137.210938 242.753906 137.199219 242.753906 137.1875 242.75 C 137.183594 242.75 137.175781 242.75 137.171875 242.75 C 137.164062 242.75 137.15625 242.75 137.152344 242.75 C 137.144531 242.75 137.136719 242.75 137.132812 242.75 C 137.125 242.75 137.121094 242.75 137.113281 242.75 C 137.109375 242.75 137.101562 242.75 137.097656 242.75 C 137.085938 242.75 137.078125 242.75 137.070312 242.746094 C 137.0625 242.746094 137.050781 242.746094 137.042969 242.746094 C 137.039062 242.746094 137.03125 242.746094 137.027344 242.746094 C 137.019531 242.746094 137.011719 242.746094 137.007812 242.746094 C 137 242.746094 136.996094 242.746094 136.988281 242.746094 C 136.984375 242.742188 136.976562 242.742188 136.96875 242.742188 C 136.960938 242.742188 136.949219 242.742188 136.9375 242.742188 C 136.933594 242.742188 136.925781 242.742188 136.921875 242.742188 C 136.914062 242.742188 136.90625 242.742188 136.898438 242.742188 C 136.894531 242.742188 136.886719 242.742188 136.882812 242.742188 C 136.875 242.742188 136.867188 242.738281 136.863281 242.738281 C 136.859375 242.738281 136.851562 242.738281 136.84375 242.738281 C 136.835938 242.738281 136.828125 242.738281 136.820312 242.738281 C 136.8125 242.738281 136.800781 242.738281 136.796875 242.738281 C 136.789062 242.738281 136.78125 242.738281 136.773438 242.738281 C 136.765625 242.734375 136.761719 242.734375 136.753906 242.734375 C 136.75 242.734375 136.746094 242.734375 136.738281 242.734375 C 136.734375 242.734375 136.722656 242.734375 136.71875 242.734375 C 136.710938 242.734375 136.703125 242.734375 136.695312 242.734375 C 136.6875 242.730469 136.679688 242.730469 136.667969 242.730469 C 136.664062 242.730469 136.65625 242.730469 136.648438 242.730469 C 136.644531 242.730469 136.636719 242.730469 136.628906 242.730469 C 136.625 242.730469 136.621094 242.730469 136.613281 242.730469 C 136.605469 242.730469 136.597656 242.730469 136.59375 242.726562 C 136.585938 242.726562 136.582031 242.726562 136.574219 242.726562 C 136.5625 242.726562 136.550781 242.726562 136.539062 242.726562 C 136.535156 242.726562 136.53125 242.726562 136.523438 242.726562 C 136.519531 242.726562 136.511719 242.726562 136.503906 242.722656 C 136.5 242.722656 136.492188 242.722656 136.488281 242.722656 C 136.480469 242.722656 136.472656 242.722656 136.46875 242.722656 C 136.460938 242.722656 136.457031 242.722656 136.453125 242.722656 C 136.441406 242.722656 136.425781 242.71875 136.414062 242.71875 C 136.410156 242.71875 136.402344 242.71875 136.402344 242.71875 C 136.394531 242.71875 136.386719 242.71875 136.375 242.71875 C 136.375 242.71875 136.367188 242.71875 136.363281 242.71875 C 136.359375 242.71875 136.347656 242.714844 136.34375 242.714844 C 136.339844 242.714844 136.332031 242.714844 136.328125 242.714844 C 136.316406 242.714844 136.300781 242.714844 136.285156 242.714844 C 136.285156 242.714844 136.277344 242.714844 136.273438 242.714844 C 136.269531 242.710938 136.257812 242.710938 136.25 242.710938 C 136.25 242.710938 136.242188 242.710938 136.238281 242.710938 C 136.234375 242.710938 136.222656 242.710938 136.21875 242.710938 C 136.214844 242.710938 136.207031 242.710938 136.203125 242.710938 C 136.191406 242.707031 136.171875 242.707031 136.15625 242.707031 C 136.15625 242.707031 136.152344 242.707031 136.152344 242.707031 C 136.140625 242.707031 136.132812 242.707031 136.125 242.703125 C 136.121094 242.703125 136.117188 242.703125 136.117188 242.703125 C 136.105469 242.703125 136.101562 242.703125 136.089844 242.703125 C 136.089844 242.703125 136.085938 242.703125 136.082031 242.703125 C 136.066406 242.703125 136.046875 242.699219 136.027344 242.699219 C 136.015625 242.699219 136.007812 242.699219 136 242.699219 C 135.996094 242.699219 135.996094 242.699219 135.992188 242.699219 C 135.984375 242.695312 135.972656 242.695312 135.964844 242.695312 C 135.964844 242.695312 135.960938 242.695312 135.960938 242.695312 C 135.929688 242.695312 135.902344 242.691406 135.875 242.691406 C 135.871094 242.691406 135.867188 242.691406 135.867188 242.691406 C 135.859375 242.6875 135.847656 242.6875 135.839844 242.6875 C 135.839844 242.6875 135.835938 242.6875 135.835938 242.6875 C 135.804688 242.6875 135.777344 242.683594 135.75 242.683594 C 135.746094 242.683594 135.742188 242.683594 135.742188 242.683594 C 135.734375 242.679688 135.722656 242.679688 135.714844 242.679688 C 135.714844 242.679688 135.710938 242.679688 135.710938 242.679688 C 135.679688 242.679688 135.652344 242.675781 135.621094 242.675781 C 135.621094 242.675781 135.621094 242.675781 135.617188 242.675781 C 135.609375 242.671875 135.601562 242.671875 135.589844 242.671875 C 135.585938 242.671875 135.589844 242.671875 135.585938 242.671875 C 135.558594 242.667969 135.527344 242.667969 135.496094 242.664062 C 135.484375 242.664062 135.476562 242.664062 135.464844 242.664062 C 115.230469 241.257812 98.132812 226.929688 90.6875 206.964844 C 98.597656 215.636719 109.433594 220.984375 121.390625 220.984375 C 145.617188 220.984375 165.257812 199.019531 165.257812 171.925781 C 165.257812 154.753906 155.996094 138.609375 147.140625 125.328125 C 141.503906 116.875 134.320312 107.539062 128.40625 97.960938 C 131.152344 93.609375 133.820312 89.320312 136.308594 85.238281 C 136.3125 85.230469 136.316406 85.222656 136.320312 85.214844 C 136.332031 85.199219 136.339844 85.183594 136.347656 85.167969 C 136.347656 85.167969 136.351562 85.164062 136.351562 85.164062 C 136.363281 85.144531 136.375 85.125 136.386719 85.105469 C 136.390625 85.101562 136.390625 85.097656 136.394531 85.09375 C 136.40625 85.074219 136.417969 85.054688 136.429688 85.039062 C 136.429688 85.035156 136.429688 85.035156 136.429688 85.035156 C 136.441406 85.015625 136.453125 84.996094 136.46875 84.972656 C 136.46875 84.972656 136.46875 84.96875 136.46875 84.96875 C 136.625 84.714844 136.777344 84.464844 136.929688 84.210938 C 136.929688 84.210938 136.929688 84.207031 136.933594 84.207031 C 137.035156 84.042969 137.132812 83.878906 137.230469 83.714844 C 137.234375 83.710938 137.238281 83.703125 137.238281 83.699219 C 137.289062 83.617188 137.335938 83.539062 137.386719 83.457031 C 137.390625 83.453125 137.390625 83.453125 137.390625 83.449219 C 137.414062 83.410156 137.4375 83.371094 137.460938 83.332031 C 137.464844 83.328125 137.46875 83.324219 137.46875 83.320312 C 137.480469 83.304688 137.488281 83.289062 137.5 83.269531 C 137.5 83.265625 137.503906 83.265625 137.503906 83.257812 C 137.515625 83.242188 137.527344 83.226562 137.539062 83.207031 C 137.542969 83.199219 137.546875 83.195312 137.550781 83.1875 C 137.558594 83.175781 137.566406 83.160156 137.574219 83.148438 C 137.578125 83.144531 137.578125 83.140625 137.582031 83.136719 C 137.59375 83.117188 137.605469 83.097656 137.613281 83.078125 C 137.617188 83.074219 137.621094 83.070312 137.621094 83.066406 C 137.632812 83.050781 137.640625 83.035156 137.652344 83.019531 C 137.652344 83.015625 137.65625 83.011719 137.65625 83.007812 C 137.683594 82.96875 137.703125 82.933594 137.726562 82.894531 C 137.730469 82.890625 137.730469 82.886719 137.734375 82.882812 C 137.746094 82.863281 137.753906 82.847656 137.765625 82.828125 C 137.765625 82.828125 137.769531 82.828125 137.769531 82.824219 C 137.792969 82.785156 137.816406 82.746094 137.839844 82.707031 C 137.84375 82.703125 137.84375 82.699219 137.84375 82.699219 C 137.871094 82.660156 137.894531 82.617188 137.917969 82.578125 C 137.941406 82.535156 137.96875 82.496094 137.992188 82.457031 C 137.992188 82.453125 137.996094 82.449219 137.996094 82.445312 C 138.007812 82.425781 138.019531 82.410156 138.03125 82.390625 C 138.03125 82.390625 138.03125 82.390625 138.03125 82.386719 C 138.042969 82.371094 138.054688 82.347656 138.066406 82.332031 C 138.070312 82.328125 138.070312 82.324219 138.070312 82.320312 C 138.082031 82.304688 138.09375 82.285156 138.105469 82.265625 C 138.105469 82.265625 138.105469 82.265625 138.105469 82.261719 C 138.117188 82.246094 138.128906 82.226562 138.140625 82.207031 C 138.144531 82.203125 138.148438 82.195312 138.152344 82.191406 C 138.160156 82.175781 138.167969 82.164062 138.175781 82.148438 C 138.179688 82.144531 138.183594 82.140625 138.183594 82.132812 C 138.207031 82.097656 138.230469 82.058594 138.253906 82.023438 C 138.253906 82.019531 138.257812 82.015625 138.257812 82.011719 C 138.269531 81.996094 138.277344 81.980469 138.289062 81.964844 C 138.289062 81.960938 138.292969 81.957031 138.292969 81.953125 C 138.316406 81.914062 138.339844 81.875 138.363281 81.839844 C 138.363281 81.835938 138.367188 81.828125 138.371094 81.824219 C 138.378906 81.808594 138.390625 81.792969 138.398438 81.777344 C 138.402344 81.769531 138.40625 81.761719 138.414062 81.753906 C 138.417969 81.742188 138.425781 81.730469 138.433594 81.71875 C 138.4375 81.710938 138.445312 81.703125 138.449219 81.695312 C 138.457031 81.683594 138.464844 81.667969 138.472656 81.65625 C 138.476562 81.652344 138.476562 81.644531 138.480469 81.640625 C 138.492188 81.625 138.5 81.609375 138.511719 81.589844 C 138.515625 81.585938 138.515625 81.582031 138.519531 81.578125 C 138.53125 81.558594 138.539062 81.542969 138.550781 81.527344 C 138.550781 81.523438 138.550781 81.523438 138.554688 81.519531 C 138.5625 81.503906 138.574219 81.484375 138.585938 81.464844 C 138.589844 81.460938 138.59375 81.457031 138.59375 81.453125 C 138.605469 81.4375 138.613281 81.417969 138.621094 81.402344 C 138.625 81.402344 138.625 81.398438 138.628906 81.398438 C 138.636719 81.378906 138.648438 81.359375 138.660156 81.339844 C 138.664062 81.335938 138.667969 81.332031 138.667969 81.328125 C 138.679688 81.3125 138.6875 81.300781 138.695312 81.285156 C 138.699219 81.277344 138.699219 81.273438 138.703125 81.265625 C 138.714844 81.25 138.726562 81.230469 138.738281 81.214844 C 145.941406 97.90625 159.554688 114.710938 169.285156 129.300781 C 179.792969 145.054688 190.777344 164.207031 190.777344 184.582031 C 190.777344 216.722656 167.480469 242.777344 138.738281 242.777344 " fill-opacity="1" fill-rule="nonzero"/></g><path fill="#323232" d="M 91.101562 194.242188 C 89.359375 182.550781 93.234375 172.285156 99.757812 171.3125 C 106.28125 170.339844 101.171875 180.789062 102.914062 192.484375 C 104.65625 204.175781 112.59375 212.683594 106.070312 213.65625 C 99.546875 214.628906 92.847656 205.9375 91.101562 194.242188 " fill-opacity="1" fill-rule="nonzero"/><path fill="#323232" d="M 106.882812 161.996094 C 106.882812 158.828125 104.316406 156.261719 101.148438 156.261719 C 97.980469 156.261719 95.414062 158.828125 95.414062 161.996094 C 95.414062 165.164062 97.980469 167.730469 101.148438 167.730469 C 104.316406 167.730469 106.882812 165.164062 106.882812 161.996094 " fill-opacity="1" fill-rule="nonzero"/></svg>