<svg width="38" height="38" viewBox="0 0 38 38" fill="none" xmlns="http://www.w3.org/2000/svg">
<path d="M16.9999 0H21.1666C22.3172 0 23.2499 0.93274 23.2499 2.08333V3.26831C23.2499 4.15955 23.8481 4.93385 24.6712 5.27559C25.4946 5.61746 26.4534 5.48717 27.0838 4.85672L27.922 4.01856C28.7356 3.20497 30.0547 3.20497 30.8683 4.01856L33.8146 6.96484C34.6282 7.77843 34.6281 9.09752 33.8146 9.91112L32.9765 10.7492C32.346 11.3797 32.2157 12.3385 32.5576 13.162C32.8994 13.9851 33.6737 14.5833 34.565 14.5833L35.7499 14.5833C36.9005 14.5833 37.8333 15.5161 37.8333 16.6667V20.8333C37.8333 21.9839 36.9005 22.9167 35.7499 22.9167H34.565C33.6737 22.9167 32.8994 23.5148 32.5576 24.338C32.2158 25.1615 32.3461 26.1203 32.9765 26.7507L33.8146 27.5888C34.6282 28.4024 34.6282 29.7215 33.8146 30.5351L30.8683 33.4813C30.0547 34.2949 28.7356 34.2949 27.922 33.4813L27.084 32.6433C26.4535 32.0128 25.4947 31.8825 24.6712 32.2244C23.8481 32.5661 23.2499 33.3405 23.2499 34.2317V35.4167C23.2499 36.5673 22.3172 37.5 21.1666 37.5H16.9999C15.8493 37.5 14.9166 36.5673 14.9166 35.4167V34.2318C14.9166 33.3405 14.3184 32.5661 13.4952 32.2244C12.6717 31.8825 11.7129 32.0128 11.0824 32.6433L10.2443 33.4813C9.43074 34.2949 8.11165 34.2949 7.29805 33.4813L4.35178 30.5351C3.53818 29.7215 3.53818 28.4024 4.35178 27.5888L5.18998 26.7506C5.82042 26.1201 5.95072 25.1614 5.60884 24.3379C5.2671 23.5148 4.49281 22.9167 3.60156 22.9167H2.41659C1.26599 22.9167 0.333252 21.9839 0.333252 20.8333V16.6667C0.333252 15.5161 1.26599 14.5833 2.41658 14.5833L3.60152 14.5833C4.49279 14.5833 5.26711 13.9852 5.60886 13.162C5.95075 12.3385 5.82045 11.3798 5.18999 10.7493L4.35181 9.91112C3.53822 9.09753 3.53822 7.77844 4.35181 6.96484L7.29809 4.01857C8.11168 3.20497 9.43078 3.20497 10.2444 4.01857L11.0825 4.85673C11.713 5.4872 12.6718 5.6175 13.4953 5.27561C14.3184 4.93385 14.9166 4.15954 14.9166 3.26826V2.08333C14.9166 0.93274 15.8493 0 16.9999 0Z" fill="white"/>
<path d="M23.2499 18.75C23.2499 21.0512 21.3844 22.9167 19.0833 22.9167C16.7821 22.9167 14.9166 21.0512 14.9166 18.75C14.9166 16.4488 16.7821 14.5833 19.0833 14.5833C21.3844 14.5833 23.2499 16.4488 23.2499 18.75Z" fill="white"/>
<path d="M16.9999 0H21.1666C22.3172 0 23.2499 0.93274 23.2499 2.08333V3.26831C23.2499 4.15955 23.8481 4.93385 24.6712 5.27559C25.4946 5.61746 26.4534 5.48717 27.0838 4.85672L27.922 4.01856C28.7356 3.20497 30.0547 3.20497 30.8683 4.01856L33.8146 6.96484C34.6282 7.77843 34.6281 9.09752 33.8146 9.91112L32.9765 10.7492C32.346 11.3797 32.2157 12.3385 32.5576 13.162C32.8994 13.9851 33.6737 14.5833 34.565 14.5833L35.7499 14.5833C36.9005 14.5833 37.8333 15.5161 37.8333 16.6667V20.8333C37.8333 21.9839 36.9005 22.9167 35.7499 22.9167H34.565C33.6737 22.9167 32.8994 23.5148 32.5576 24.338C32.2158 25.1615 32.3461 26.1203 32.9765 26.7507L33.8146 27.5888C34.6282 28.4024 34.6282 29.7215 33.8146 30.5351L30.8683 33.4813C30.0547 34.2949 28.7356 34.2949 27.922 33.4813L27.084 32.6433C26.4535 32.0128 25.4947 31.8825 24.6712 32.2244C23.8481 32.5661 23.2499 33.3405 23.2499 34.2317V35.4167C23.2499 36.5673 22.3172 37.5 21.1666 37.5H16.9999C15.8493 37.5 14.9166 36.5673 14.9166 35.4167V34.2318C14.9166 33.3405 14.3184 32.5661 13.4952 32.2244C12.6717 31.8825 11.7129 32.0128 11.0824 32.6433L10.2443 33.4813C9.43074 34.2949 8.11165 34.2949 7.29805 33.4813L4.35178 30.5351C3.53818 29.7215 3.53818 28.4024 4.35178 27.5888L5.18998 26.7506C5.82042 26.1201 5.95072 25.1614 5.60884 24.3379C5.2671 23.5148 4.49281 22.9167 3.60156 22.9167H2.41659C1.26599 22.9167 0.333252 21.9839 0.333252 20.8333V16.6667C0.333252 15.5161 1.26599 14.5833 2.41658 14.5833L3.60152 14.5833C4.49279 14.5833 5.26711 13.9852 5.60886 13.162C5.95075 12.3385 5.82045 11.3798 5.18999 10.7493L4.35181 9.91112C3.53822 9.09753 3.53822 7.77844 4.35181 6.96484L7.29809 4.01857C8.11168 3.20497 9.43078 3.20497 10.2444 4.01857L11.0825 4.85673C11.713 5.4872 12.6718 5.6175 13.4953 5.27561C14.3184 4.93385 14.9166 4.15954 14.9166 3.26826V2.08333C14.9166 0.93274 15.8493 0 16.9999 0Z" stroke="#083949"/>
<path d="M23.2499 18.75C23.2499 21.0512 21.3844 22.9167 19.0833 22.9167C16.7821 22.9167 14.9166 21.0512 14.9166 18.75C14.9166 16.4488 16.7821 14.5833 19.0833 14.5833C21.3844 14.5833 23.2499 16.4488 23.2499 18.75Z" stroke="#083949"/>
</svg>
