<svg width="37" height="41" viewBox="0 0 37 41" fill="none" xmlns="http://www.w3.org/2000/svg">
<path d="M26.8333 27H10.1666C5.56421 27 1.83325 30.731 1.83325 35.3333V39.5H35.1666V35.3333C35.1666 30.731 31.4356 27 26.8333 27Z" fill="white"/>
<path d="M18.4999 18.6667C23.1023 18.6667 26.8333 14.9357 26.8333 10.3333C26.8333 5.73096 23.1023 2 18.4999 2C13.8975 2 10.1666 5.73096 10.1666 10.3333C10.1666 14.9357 13.8975 18.6667 18.4999 18.6667Z" fill="white"/>
<path d="M26.8333 27H10.1666C5.56421 27 1.83325 30.731 1.83325 35.3333V39.5H35.1666V35.3333C35.1666 30.731 31.4356 27 26.8333 27Z" stroke="white" stroke-width="3" stroke-linecap="round" stroke-linejoin="round"/>
<path d="M18.4999 18.6667C23.1023 18.6667 26.8333 14.9357 26.8333 10.3333C26.8333 5.73096 23.1023 2 18.4999 2C13.8975 2 10.1666 5.73096 10.1666 10.3333C10.1666 14.9357 13.8975 18.6667 18.4999 18.6667Z" stroke="white" stroke-width="3" stroke-linecap="round" stroke-linejoin="round"/>
</svg>
